<svg width="570" height="571" viewBox="0 0 570 571" fill="none" xmlns="http://www.w3.org/2000/svg">
<mask id="path-1-inside-1_990_52" fill="white">
<path fill-rule="evenodd" clip-rule="evenodd" d="M300.238 0.535767H269.285L280.136 250.113L226.022 6.23293L196.124 14.2442L277.648 272.969L94.3414 72.9979L72.4543 94.885L256.614 263.698L45.908 129.518L30.4315 156.324L271 281.612L1.35299e-06 269.829L0 300.782L249.63 289.929L5.683 344.057L13.6942 373.955L272.402 292.437L72.4543 475.722L94.3414 497.609L263.251 313.344L128.986 524.182L155.793 539.659L281.065 299.119L269.285 570.071H300.238L289.383 320.417L343.514 564.373L373.412 556.362L291.89 297.641L475.194 497.61L497.081 475.723L312.809 306.806L523.679 441.092L539.156 414.286L298.596 289.002L569.536 300.782V269.829L319.85 280.685L563.824 226.551L555.812 196.652L297.147 278.157L497.081 94.8847L475.194 72.9976L306.323 257.221L440.56 46.425L413.754 30.9485L288.455 271.539L300.238 0.535767Z"/>
</mask>
<path d="M269.285 0.535767V-0.464233H268.24L268.286 0.579204L269.285 0.535767ZM300.238 0.535767L301.237 0.579204L301.282 -0.464233H300.238V0.535767ZM280.136 250.113L279.16 250.329L281.135 250.069L280.136 250.113ZM226.022 6.23293L226.999 6.01631L226.772 4.99669L225.764 5.267L226.022 6.23293ZM196.124 14.2442L195.865 13.2782L194.856 13.5485L195.17 14.5447L196.124 14.2442ZM277.648 272.969L276.911 273.644L278.601 272.668L277.648 272.969ZM94.3414 72.9979L95.0785 72.3222L94.3728 71.5523L93.6343 72.2908L94.3414 72.9979ZM72.4543 94.885L71.7472 94.1779L71.0087 94.9164L71.7786 95.6222L72.4543 94.885ZM256.614 263.698L256.077 264.542L257.29 262.961L256.614 263.698ZM45.908 129.518L46.4451 128.674L45.5642 128.113L45.042 129.018L45.908 129.518ZM30.4315 156.324L29.5655 155.824L29.0432 156.728L29.9696 157.211L30.4315 156.324ZM271 281.612L270.957 282.611L271.462 280.725L271 281.612ZM1.35299e-06 269.829L0.0434387 268.83L-0.999999 268.785L-0.999999 269.829L1.35299e-06 269.829ZM0 300.782L-1 300.782L-1 301.826L0.0434371 301.781L0 300.782ZM249.63 289.929L249.847 290.905L249.587 288.93L249.63 289.929ZM5.683 344.057L5.46638 343.081L4.44676 343.307L4.71708 344.316L5.683 344.057ZM13.6942 373.955L12.7283 374.214L12.9986 375.223L13.9948 374.909L13.6942 373.955ZM272.402 292.437L273.078 293.174L272.101 291.483L272.402 292.437ZM72.4543 475.722L71.7786 474.985L71.0087 475.691L71.7472 476.429L72.4543 475.722ZM94.3414 497.609L93.6343 498.316L94.3728 499.055L95.0785 498.285L94.3414 497.609ZM263.251 313.344L264.094 313.881L262.514 312.669L263.251 313.344ZM128.986 524.182L128.143 523.645L127.582 524.526L128.486 525.048L128.986 524.182ZM155.793 539.659L155.293 540.525L156.197 541.047L156.679 540.121L155.793 539.659ZM281.065 299.119L282.064 299.163L280.178 298.657L281.065 299.119ZM269.285 570.071L268.286 570.028L268.24 571.071H269.285V570.071ZM300.238 570.071V571.071H301.282L301.237 570.028L300.238 570.071ZM289.383 320.417L290.36 320.201L288.384 320.461L289.383 320.417ZM343.514 564.373L342.537 564.59L342.764 565.61L343.773 565.339L343.514 564.373ZM373.412 556.362L373.671 557.328L374.68 557.058L374.366 556.062L373.412 556.362ZM291.89 297.641L292.627 296.965L290.936 297.942L291.89 297.641ZM475.194 497.61L474.457 498.285L475.163 499.055L475.901 498.317L475.194 497.61ZM497.081 475.723L497.788 476.43L498.527 475.691L497.757 474.985L497.081 475.723ZM312.809 306.806L313.346 305.963L312.133 307.543L312.809 306.806ZM523.679 441.092L523.142 441.935L524.023 442.496L524.545 441.592L523.679 441.092ZM539.156 414.286L540.022 414.786L540.544 413.881L539.618 413.399L539.156 414.286ZM298.596 289.002L298.639 288.003L298.134 289.889L298.596 289.002ZM569.536 300.782L569.492 301.781L570.536 301.826V300.782H569.536ZM569.536 269.829H570.536V268.785L569.492 268.83L569.536 269.829ZM319.85 280.685L319.634 279.709L319.894 281.684L319.85 280.685ZM563.824 226.551L564.04 227.527L565.06 227.301L564.789 226.292L563.824 226.551ZM555.812 196.652L556.778 196.394L556.508 195.385L555.512 195.699L555.812 196.652ZM297.147 278.157L296.472 277.42L297.448 279.111L297.147 278.157ZM497.081 94.8847L497.757 95.6218L498.527 94.9161L497.788 94.1776L497.081 94.8847ZM475.194 72.9976L475.901 72.2905L475.163 71.5519L474.457 72.3218L475.194 72.9976ZM306.323 257.221L305.479 256.683L307.06 257.896L306.323 257.221ZM440.56 46.425L441.404 46.9621L441.965 46.0812L441.06 45.5589L440.56 46.425ZM413.754 30.9485L414.254 30.0824L413.35 29.5602L412.867 30.4865L413.754 30.9485ZM288.455 271.539L287.456 271.495L289.342 272.001L288.455 271.539ZM269.285 1.53577H300.238V-0.464233H269.285V1.53577ZM281.135 250.069L270.284 0.492329L268.286 0.579204L279.137 250.156L281.135 250.069ZM225.046 6.44955L279.16 250.329L281.112 249.896L226.999 6.01631L225.046 6.44955ZM196.383 15.2101L226.281 7.19885L225.764 5.267L195.865 13.2782L196.383 15.2101ZM278.601 272.668L197.078 13.9436L195.17 14.5447L276.694 273.269L278.601 272.668ZM93.6042 73.6737L276.911 273.644L278.385 272.293L95.0785 72.3222L93.6042 73.6737ZM73.1614 95.5921L95.0485 73.705L93.6343 72.2908L71.7472 94.1779L73.1614 95.5921ZM257.29 262.961L73.13 94.1479L71.7786 95.6222L255.939 264.436L257.29 262.961ZM45.3709 130.361L256.077 264.542L257.151 262.855L46.4451 128.674L45.3709 130.361ZM31.2975 156.824L46.774 130.018L45.042 129.018L29.5655 155.824L31.2975 156.824ZM271.462 280.725L30.8934 155.437L29.9696 157.211L270.538 282.499L271.462 280.725ZM-0.043436 270.828L270.957 282.611L271.044 280.613L0.0434387 268.83L-0.043436 270.828ZM1 300.782L1 269.829L-0.999999 269.829L-1 300.782L1 300.782ZM249.587 288.93L-0.0434371 299.783L0.0434371 301.781L249.673 290.928L249.587 288.93ZM5.89962 345.033L249.847 290.905L249.413 288.952L5.46638 343.081L5.89962 345.033ZM14.6602 373.697L6.64893 343.798L4.71708 344.316L12.7283 374.214L14.6602 373.697ZM272.101 291.483L13.3937 373.002L13.9948 374.909L272.702 293.391L272.101 291.483ZM73.13 476.459L273.078 293.174L271.726 291.7L71.7786 474.985L73.13 476.459ZM95.0485 496.902L73.1614 475.015L71.7472 476.429L93.6343 498.316L95.0485 496.902ZM262.514 312.669L93.6042 496.934L95.0785 498.285L263.988 314.02L262.514 312.669ZM129.83 524.719L264.094 313.881L262.407 312.807L128.143 523.645L129.83 524.719ZM156.293 538.793L129.486 523.316L128.486 525.048L155.293 540.525L156.293 538.793ZM280.178 298.657L154.906 539.197L156.679 540.121L281.952 299.581L280.178 298.657ZM270.284 570.115L282.064 299.163L280.066 299.076L268.286 570.028L270.284 570.115ZM300.238 569.071H269.285V571.071H300.238V569.071ZM288.384 320.461L299.239 570.115L301.237 570.028L290.382 320.374L288.384 320.461ZM344.49 564.157L290.36 320.201L288.407 320.634L342.537 564.59L344.49 564.157ZM373.153 555.396L343.255 563.408L343.773 565.339L373.671 557.328L373.153 555.396ZM290.936 297.942L372.458 556.663L374.366 556.062L292.843 297.341L290.936 297.942ZM475.931 496.934L292.627 296.965L291.152 298.317L474.457 498.285L475.931 496.934ZM496.374 475.015L474.487 496.903L475.901 498.317L497.788 476.43L496.374 475.015ZM312.133 307.543L496.405 476.46L497.757 474.985L313.484 306.069L312.133 307.543ZM524.216 440.248L313.346 305.963L312.271 307.65L523.142 441.935L524.216 440.248ZM538.29 413.786L522.813 440.592L524.545 441.592L540.022 414.786L538.29 413.786ZM298.134 289.889L538.694 415.172L539.618 413.399L299.058 288.115L298.134 289.889ZM569.579 299.783L298.639 288.003L298.552 290.001L569.492 301.781L569.579 299.783ZM568.536 269.829V300.782H570.536V269.829H568.536ZM319.894 281.684L569.579 270.828L569.492 268.83L319.807 279.686L319.894 281.684ZM320.067 281.661L564.04 227.527L563.607 225.574L319.634 279.709L320.067 281.661ZM564.789 226.292L556.778 196.394L554.846 196.911L562.858 226.81L564.789 226.292ZM555.512 195.699L296.847 277.203L297.448 279.111L556.113 197.606L555.512 195.699ZM496.405 94.1475L296.472 277.42L297.823 278.894L497.757 95.6218L496.405 94.1475ZM474.487 73.7047L496.374 95.5918L497.788 94.1776L475.901 72.2905L474.487 73.7047ZM307.06 257.896L475.931 73.6733L474.457 72.3218L305.586 256.545L307.06 257.896ZM439.717 45.8878L305.479 256.683L307.166 257.758L441.404 46.9621L439.717 45.8878ZM413.254 31.8145L440.06 47.291L441.06 45.5589L414.254 30.0824L413.254 31.8145ZM289.342 272.001L414.641 31.4104L412.867 30.4865L287.568 271.077L289.342 272.001ZM299.239 0.492329L287.456 271.495L289.454 271.582L301.237 0.579204L299.239 0.492329Z" fill="black" fill-opacity="0.2" mask="url(#path-1-inside-1_990_52)"/>
</svg>
