<svg width="16" height="17" viewBox="0 0 16 17" fill="none" xmlns="http://www.w3.org/2000/svg">
<mask id="mask0_976_446" style="mask-type:alpha" maskUnits="userSpaceOnUse" x="0" y="0" width="16" height="17">
<path d="M8 16.5521C12.4183 16.5521 16 12.9704 16 8.55211C16 4.13383 12.4183 0.552109 8 0.552109C3.58172 0.552109 0 4.13383 0 8.55211C0 12.9704 3.58172 16.5521 8 16.5521Z" fill="#D9D9D9"/>
</mask>
<g mask="url(#mask0_976_446)">
<circle cx="2" cy="8.55211" r="8" fill="black"/>
</g>
<path d="M15.75 8.55211C15.75 12.8323 12.2802 16.3021 8 16.3021C3.71979 16.3021 0.25 12.8323 0.25 8.55211C0.25 4.2719 3.71979 0.802109 8 0.802109C12.2802 0.802109 15.75 4.2719 15.75 8.55211Z" stroke="black" stroke-width="0.5" stroke-linecap="round" stroke-linejoin="round"/>
</svg>
