<svg width="62" height="23" viewBox="0 0 62 23" fill="none" xmlns="http://www.w3.org/2000/svg">
<rect x="0.25" y="0.802109" width="61.5" height="21.5" rx="10.75" stroke="black" stroke-width="0.5"/>
<path d="M9.99103 15.1957V7.73633H12.9428C13.5573 7.73633 14.0422 7.84822 14.3974 8.07201C14.7562 8.29223 15.0119 8.5764 15.1646 8.92451C15.3174 9.27261 15.3938 9.63315 15.3938 10.0061C15.3938 10.269 15.3493 10.5336 15.2605 10.8C15.1717 11.0629 15.0297 11.3062 14.8343 11.53C14.6389 11.7537 14.385 11.9331 14.0724 12.0681C13.7633 12.2031 13.3868 12.2706 12.9428 12.2706H11.0673V15.1957H9.99103ZM11.0673 11.2636H13.0068C13.3264 11.2636 13.5804 11.1996 13.7687 11.0717C13.9605 10.9439 14.0972 10.784 14.1789 10.5922C14.2606 10.4004 14.3015 10.205 14.3015 10.0061C14.3015 9.82851 14.2642 9.64203 14.1896 9.44666C14.1186 9.24774 13.9889 9.0808 13.8006 8.94582C13.6124 8.81084 13.3478 8.74335 13.0068 8.74335H11.0673V11.2636ZM18.2499 15.1957V8.76999H16.1613V7.73633H21.4201V8.76999H19.3262V15.1957H18.2499ZM22.273 12.537V11.5193H24.8518V12.537H22.273ZM26.5998 15.1957V7.73633H29.4344C30.0311 7.73633 30.5 7.83224 30.841 8.02405C31.182 8.21586 31.4253 8.46451 31.5709 8.76999C31.7166 9.07192 31.7894 9.38805 31.7894 9.7184C31.7894 10.0558 31.7006 10.3631 31.523 10.6402C31.3454 10.9137 31.0861 11.125 30.7451 11.2742C31.0257 11.363 31.2637 11.4962 31.459 11.6738C31.6544 11.8479 31.8018 12.0521 31.9013 12.2866C32.0007 12.5174 32.0505 12.7661 32.0505 13.0325C32.0505 13.2882 32.0078 13.544 31.9226 13.7997C31.8409 14.0555 31.7041 14.2899 31.5123 14.5031C31.3241 14.7126 31.0719 14.8813 30.7557 15.0092C30.4432 15.1335 30.0578 15.1957 29.5995 15.1957H26.5998ZM27.6761 14.194H29.7008C30.0311 14.194 30.2886 14.139 30.4733 14.0288C30.6616 13.9187 30.7913 13.7784 30.8623 13.6079C30.9369 13.4339 30.9742 13.2563 30.9742 13.0751C30.9742 12.862 30.9298 12.6595 30.841 12.4677C30.7557 12.2759 30.5959 12.1214 30.3615 12.0042C30.1306 11.8834 29.8002 11.823 29.3704 11.823H27.6761V14.194ZM27.6761 10.848H29.2585C29.7452 10.848 30.1093 10.7503 30.3508 10.5549C30.5923 10.356 30.7131 10.0931 30.7131 9.76635C30.7131 9.60295 30.6811 9.44133 30.6172 9.28149C30.5533 9.11809 30.4325 8.98489 30.2549 8.88188C30.0773 8.77887 29.818 8.72736 29.477 8.72736H27.6761V10.848ZM33.6658 15.1957V7.73633H36.7561C37.3635 7.73633 37.8413 7.84112 38.1894 8.05069C38.5375 8.26027 38.7844 8.532 38.93 8.8659C39.0792 9.19979 39.1538 9.55145 39.1538 9.92086C39.1538 10.2086 39.0969 10.4963 38.9833 10.784C38.8696 11.0717 38.6902 11.3257 38.4451 11.5459C38.2036 11.7662 37.8892 11.9242 37.5021 12.0201L39.0579 15.1957H37.8431L36.3512 12.1214H34.7421V15.1957H33.6658ZM34.7421 11.1144H36.7774C37.0971 11.1144 37.3493 11.0575 37.534 10.9439C37.7223 10.8266 37.8555 10.6792 37.9336 10.5016C38.0153 10.3205 38.0562 10.1322 38.0562 9.93685C38.0562 9.75924 38.0189 9.57986 37.9443 9.39871C37.8697 9.214 37.74 9.05948 37.5553 8.93516C37.3706 8.80729 37.1113 8.74335 36.7774 8.74335H34.7421V11.1144Z" fill="black"/>
<circle cx="51" cy="11.5521" r="8" fill="black"/>
</svg>
